<?xml version="1.0" encoding="UTF-8"?>
<svg id="Layer_2" data-name="Layer 2" xmlns="http://www.w3.org/2000/svg" viewBox="0 0 469.71228 469.46137">
  <g id="Layer_1-2" data-name="Layer 1">
    <path d="M122.73752,210.32172c-3.63,8.83002-2.19,17.29999,2.13995,25.52997-13.96997,16.76001-26.67999,34.17004-38.46997,53.28003-12.47003-36.77002-10.83002-72.01001,3.21997-107.57001,10.16003,11.17999,21.26001,20.14001,33.11005,28.76001ZM60.56748,322.12171c-8.66998,16.72998-30.54999,22.28003-46.48999,12.03003-14.42999-9.29004-20.07001-30.60004-5.78998-47.06006-13.54999-69.13995.66998-132.02997,44.25-187.5C88.54752,53.75172,136.10752,26.28168,193.89749,15.02174v31.77997c-63.28003,15.51001-110.83002,51.06-139.66998,109.79999-20.45001,41.67004-22.82001,85.29004-14.48999,121.59003,23.31,7.5,28.77997,28.57001,20.82996,43.92999ZM221.94748,134.5517c-4.60999,7.66003-6.5,15.57001-4.46997,24.65002-18.22003,11.63-36.12,24-52.87,38.13-10.05005-5.81-19.94-5.01001-30.01001.07001-13.29999-9.64001-25.27002-20.56006-36.07001-32.65002,14.32001-28.47998,45.76001-58.03998,81.91998-70.66003,15.35004,11.41003,28.22003,25.76001,41.5,40.46002ZM94.09751,310.79169c7.51001-15.91998,31.37-50.22998,43.88-63.06,11.20996,4.29004,21.33997,1.62,30.82996-6.45996,33.05005,17.81,67.59003,32.35999,103.91003,42.40997.47998,3.33002.90997,6.27002,1.41998,9.82001-47.58997,16.77997-89.72998,43.08997-129.07001,74.51001-21.67999-15.10004-38.44-34.35004-50.96997-57.22003ZM175.22751,211.40174c16.16998-14.05005,33.67999-25.84003,51.97998-37.29004,7.96002,5.83002,16.98999,7.60004,26.94,5.40002,15.47998,26.27997,28.85999,52.73999,37.10999,81.82996-3.70001,1.74005-6.67999,3.80005-9.27997,6.25-24.39001-4.51996-81.13-27.07996-104.77002-41.69995-.08002-4.76001-.58002-9.69-1.97998-14.48999ZM201.46749,87.25172c45.45998-9.28003,86.17-1.15002,125.12999,23.77997-21.04004,5.74005-40.48004,12.59003-59.62,21.27002-8.17999-8.69-18.26001-11-30.21002-8.60999-10.56-12.35999-22.58002-23.76001-35.29999-36.44h.00002ZM161.39748,378.38172c37.52997-30.10999,77.46004-54,122.3-69.78003,5.76001,4.80005,12.59003,6.45001,20.34003,6.31,4.32001,21.03003,6.60999,42.09003,5.46997,64.37-49.45001,24.02002-98.34998,21.40002-148.10999-.89996h-.00002ZM385.55747,295.54169c-3.85999,20-33.67999,57.95001-56.72998,72.13-.52997-20.19-3.04999-39.59998-6.51001-58.82001,2.67004-3.71997,5.58002-6.94,7.47003-11.32001,18.48999-3.65997,37.13995-.87,55.76996-1.98999ZM392.22751,278.63172c-20.19.27002-40.47003.82001-60.92004-.96002-2.72998-3.69-5.09998-7.72998-8.69-10.76996-3.47998-2.95001-7.37-5.11005-12.13995-6.54004-10.63-31.77002-23.28003-62.83997-41.54004-91.64996,3.63-6.11005,5.75-12.67004,5.21002-20.15002,22.81-9.92999,46.09998-17.52002,70.31-22.52002,42.41998,37.28003,59.22998,90.82001,47.77002,152.59003ZM429.68747,384.57172c-2.82996,17.51001-20.98999,29.40997-39.17999,25.44-105.14001,93.82996-257.84998,68.77997-332.47998-20.69,9.44-5.23999,18.79999-10.44,28.27997-15.70001,43.51001,43.84998,95.63,66.82001,157.53003,64.71002,47.40002-1.62,89.12-18.72003,125.39001-49.87-2.63-12.03003-.04004-22.55005,9.19995-30.94,6.74005-6.13,14.75-9.09003,23.81006-8.48004,17.60999,1.19,30.31995,17.78003,27.44995,35.53003ZM455.6575,316.90174c-9.29004-5.34003-18.29004-10.51001-27.47003-15.77002,17.44-59.33002,11.03003-115.47998-22.63-167.54004-25.17999-38.95996-60.53998-65.37994-104.22998-81.10999-13.14001,10.78003-27.58002,12.35004-40.07001,4.67004-11.32001-6.96002-16.98999-20.22003-13.95001-32.67004,3.32001-13.58997,14.74005-23.01996,29.51001-24.35999,13.60004-1.23999,25.97003,7.06,32.62,21.97998,71.54004,25.48004,122.23999,72.76001,147.78003,145,17.56,49.66002,16.21997,99.62999-1.56,149.80006ZM193.89748,15.02173v31.77997c-63.28003,15.51001-110.83002,51.06-139.66998,109.79999-20.45001,41.67004-22.82001,85.29004-14.48999,121.59003,23.31,7.5,28.77997,28.57001,20.82996,43.92999-8.66998,16.72998-30.54999,22.28003-46.48999,12.03003-14.42999-9.29004-20.07001-30.60004-5.78998-47.06006-13.54999-69.13995.66998-132.02997,44.25-187.5C88.5475,53.75172,136.1075,26.28168,193.89748,15.02173ZM455.6575,316.90174c-9.29004-5.34003-18.29004-10.51001-27.47003-15.77002,17.44-59.33002,11.03003-115.47998-22.63-167.54004-25.17999-38.95996-60.53998-65.37994-104.22998-81.10999-13.14001,10.78003-27.58002,12.35004-40.07001,4.67004-11.32001-6.96002-16.98999-20.22003-13.95001-32.67004,3.32001-13.58997,14.74005-23.01996,29.51001-24.35999,13.60004-1.23999,25.97003,7.06,32.62,21.97998,71.54004,25.48004,122.23999,72.76001,147.78003,145,17.56,49.66002,16.21997,99.62999-1.56,149.80006ZM429.68747,384.57172c-2.82996,17.51001-20.98999,29.40997-39.17999,25.44-105.14001,93.82996-257.84998,68.77997-332.47998-20.69,9.44-5.23999,18.79999-10.44,28.27997-15.70001,43.51001,43.84998,95.63,66.82001,157.53003,64.71002,47.40002-1.62,89.12-18.72003,125.39001-49.87-2.63-12.03003-.04004-22.55005,9.19995-30.94,6.74005-6.13,14.75-9.09003,23.81006-8.48004,17.60999,1.19,30.31995,17.78003,27.44995,35.53003ZM392.22751,278.63172c-20.19.27002-40.47003.82001-60.92004-.96002-2.72998-3.69-5.09998-7.72998-8.69-10.76996-3.47998-2.95001-7.37-5.11005-12.13995-6.54004-10.63-31.77002-23.28003-62.83997-41.54004-91.64996,3.63-6.11005,5.75-12.67004,5.21002-20.15002,22.81-9.92999,46.09998-17.52002,70.31-22.52002,42.41998,37.28003,59.22998,90.82001,47.77002,152.59003ZM274.13748,293.50172c-47.58997,16.77997-89.72998,43.08997-129.07001,74.51001-21.67999-15.10004-38.44-34.35004-50.96997-57.22003,7.51001-15.91998,31.37-50.22998,43.88-63.06,11.20996,4.29004,21.33997,1.62,30.82996-6.45996,33.05005,17.81,67.59003,32.35999,103.91003,42.40997.47998,3.33002.90997,6.27002,1.41998,9.82001ZM309.50748,379.28168c-49.45001,24.02002-98.34998,21.40002-148.10999-.89996,37.52997-30.10999,77.46002-54,122.29999-69.78003,5.76001,4.80005,12.59003,6.45001,20.34003,6.31,4.32001,21.03003,6.60999,42.09003,5.46997,64.37ZM217.47751,159.20171c-18.22003,11.63-36.12,24-52.87,38.13-10.05005-5.81-19.94-5.01001-30.01001.07001-13.29999-9.64001-25.27002-20.56006-36.07001-32.65002,14.32001-28.47998,45.76001-58.03998,81.91998-70.66002,15.35004,11.41003,28.22003,25.76001,41.5,40.46002-4.60999,7.66003-6.5,15.57001-4.46997,24.65002v-.00002ZM291.25748,261.34168c-3.70001,1.74005-6.67999,3.80005-9.27997,6.25-24.39001-4.51996-81.13-27.07996-104.77002-41.69995-.08002-4.76001-.58002-9.69-1.97998-14.48999,16.16998-14.05005,33.67999-25.84003,51.97998-37.29004,7.96002,5.83002,16.98999,7.60004,26.94,5.40002,15.47998,26.27997,28.85999,52.73999,37.10999,81.82996ZM326.59751,111.03168c-21.04004,5.74005-40.48004,12.59003-59.62,21.27002-8.17999-8.69-18.26001-11-30.21002-8.60999-10.56-12.35999-22.58002-23.76001-35.29999-36.44,45.45996-9.28003,86.16998-1.15002,125.13,23.77997ZM124.87746,235.85169c-13.96997,16.76001-26.67999,34.17004-38.46997,53.28003-12.47003-36.77002-10.83002-72.01001,3.21997-107.57001,10.16003,11.17999,21.26001,20.14001,33.11005,28.76001-3.63,8.83002-2.19,17.29999,2.13995,25.52997ZM385.55747,295.54169c-3.85999,20-33.67999,57.95001-56.72998,72.13-.52997-20.19-3.04999-39.59998-6.51001-58.82001,2.67004-3.71997,5.58002-6.94,7.47003-11.32001,18.48999-3.65997,37.13995-.87,55.76996-1.98999Z" fill="#001321" stroke-width="0"/>
  </g>
</svg>